<svg width="17" height="16" viewBox="0 0 17 16" fill="none" xmlns="http://www.w3.org/2000/svg">
<path fill-rule="evenodd" clip-rule="evenodd" d="M15.6859 14.9999C15.1328 15.553 14.2388 15.553 13.6857 14.9999L1.68579 2.99998C1.13267 2.44686 1.13304 1.55324 1.68616 1.00012C2.23928 0.446996 3.1329 0.446622 3.68602 0.999742L15.6859 12.9996C16.239 13.5528 16.239 14.4468 15.6859 14.9999Z" fill="#272727"/>
<path fill-rule="evenodd" clip-rule="evenodd" d="M1.68614 14.9999C2.23926 15.553 3.13326 15.553 3.68638 14.9999L15.6863 2.99998C16.2394 2.44686 16.239 1.55324 15.6859 1.00012C15.1328 0.446996 14.2392 0.446622 13.686 0.999742L1.68614 12.9996C1.13302 13.5528 1.13302 14.4468 1.68614 14.9999Z" fill="#272727"/>
</svg>
