<svg width="20" height="20" viewBox="0 0 20 20" fill="none" xmlns="http://www.w3.org/2000/svg">
<path d="M9.66796 14.0859C9.85156 14.2695 10.1484 14.2695 10.332 14.0859L16.1133 8.35159C16.2969 8.16799 16.2969 7.87113 16.1133 7.68753L15.3398 6.9141C15.1562 6.7305 14.8594 6.7305 14.6758 6.9141L9.99999 11.543L5.32421 6.9141C5.14061 6.7305 4.84375 6.7305 4.66015 6.9141L3.88672 7.68753C3.70312 7.87113 3.70312 8.16799 3.88672 8.35159L9.66796 14.0859Z" fill="#0C0C0C"/>
<path d="M9.66796 14.0859C9.85156 14.2695 10.1484 14.2695 10.332 14.0859L16.1133 8.35159C16.2969 8.16799 16.2969 7.87113 16.1133 7.68753L15.3398 6.9141C15.1562 6.7305 14.8594 6.7305 14.6758 6.9141L9.99999 11.543L5.32421 6.9141C5.14061 6.7305 4.84375 6.7305 4.66015 6.9141L3.88672 7.68753C3.70312 7.87113 3.70312 8.16799 3.88672 8.35159L9.66796 14.0859Z" fill="#0C0C0C"/>
</svg>
