<svg width="140" height="44" viewBox="0 0 140 44" fill="none" xmlns="http://www.w3.org/2000/svg">
<path fill-rule="evenodd" clip-rule="evenodd" d="M22 42C33.0461 42 42 33.0457 42 22C42 10.9543 33.0461 2 22 2C10.9539 2 2 10.9543 2 22C2 33.0457 10.9539 42 22 42Z" stroke="#7DC1FF" stroke-width="2.431"/>
<path fill-rule="evenodd" clip-rule="evenodd" d="M21.9723 10C20.6726 11.4383 19.8773 13.3855 19.8865 15.527C19.897 17.6684 20.7119 19.6062 22.0247 21.0271C23.3257 19.5888 24.121 17.6416 24.1105 15.4988C24.1 13.3574 23.2864 11.4209 21.9723 10Z" fill="#025FA6"/>
<path fill-rule="evenodd" clip-rule="evenodd" d="M21.5278 22.9967C19.6686 23.1748 17.8697 24.0882 16.5504 25.7073C15.2297 27.3251 14.6362 29.35 14.7345 31.3333C16.5936 31.1539 18.3938 30.2419 19.7132 28.6228C21.0325 27.0036 21.626 24.9801 21.5278 22.9967Z" fill="#025FA6"/>
<path fill-rule="evenodd" clip-rule="evenodd" d="M32.6667 18.0025C30.9608 17.1842 28.9706 17.0409 27.0735 17.7721C25.1763 18.502 23.7273 19.9685 22.9005 21.7617C24.6051 22.5813 26.5966 22.7232 28.4937 21.9934C30.3896 21.2635 31.8399 19.7957 32.6667 18.0025Z" fill="#025FA6"/>
<path fill-rule="evenodd" clip-rule="evenodd" d="M21.1545 21.7135C20.3016 19.9363 18.8302 18.494 16.9226 17.7949C15.015 17.0958 13.0261 17.2686 11.3333 18.1136C12.1876 19.8921 13.6589 21.3345 15.5652 22.0335C17.4729 22.7326 19.4617 22.5585 21.1545 21.7135Z" fill="#025FA6"/>
<path fill-rule="evenodd" clip-rule="evenodd" d="M29.0385 31.3327C29.1813 29.3533 28.631 27.315 27.3458 25.6638C26.0605 24.0125 24.2786 23.055 22.4195 22.8313C22.278 24.8107 22.8269 26.849 24.1122 28.5002C25.3975 30.1515 27.1807 31.1077 29.0385 31.3327Z" fill="#025FA6"/>
<path fill-rule="evenodd" clip-rule="evenodd" d="M53.2597 14.1465L52.3174 17.1556H50.2286L54.1549 5.41689H56.275L60.2013 17.1556H58.1125L57.1702 14.1465H53.2597ZM54.7359 9.26916L53.7465 12.4105H56.6676L55.6782 9.26916C55.4741 8.60782 55.2385 7.45049 55.2385 7.45049H55.2071C55.2071 7.45049 54.9558 8.60782 54.7359 9.26916ZM63.3108 20.4622V16.9241C63.3108 16.4942 63.2794 16.1966 63.2794 16.1966H63.3108C63.3108 16.1966 64.0176 17.354 65.6038 17.354C67.7082 17.354 69.263 15.618 69.263 12.9396C69.263 10.3273 67.881 8.52516 65.7137 8.52516C64.0176 8.52516 63.2882 9.65008 63.1593 9.87507L63.1381 9.91396H63.1067C63.1067 9.91396 63.1381 9.64942 63.1381 9.33529V8.72356H61.3163V20.4622H63.3108ZM63.248 12.9892C63.248 14.2953 63.9233 15.5849 65.2426 15.5849C66.3419 15.5849 67.2528 14.6425 67.2528 12.9726C67.2528 11.3689 66.4361 10.3273 65.2583 10.3273C64.2217 10.3273 63.248 11.1209 63.248 12.9892ZM72.9066 20.4622V16.9241C72.9066 16.4942 72.8752 16.1966 72.8752 16.1966H72.9066C72.9066 16.1966 73.6133 17.354 75.1995 17.354C77.304 17.354 78.8588 15.618 78.8588 12.9396C78.8588 10.3273 77.4767 8.52516 75.3094 8.52516C73.6133 8.52516 72.884 9.65008 72.7551 9.87507L72.7338 9.91396H72.7024C72.7024 9.91396 72.7338 9.64942 72.7338 9.33529V8.72356H70.9121V20.4622H72.9066ZM72.8438 12.9892C72.8438 14.2953 73.5191 15.5849 74.8383 15.5849C75.9376 15.5849 76.8485 14.6425 76.8485 12.9726C76.8485 11.3689 76.0319 10.3273 74.854 10.3273C73.8175 10.3273 72.8438 11.1209 72.8438 12.9892ZM82.8635 17.2382C83.1933 17.2382 83.4917 17.1886 83.4917 17.1886V15.3534C83.4917 15.3534 83.3504 15.37 83.1933 15.37C82.6751 15.37 82.3767 15.1385 82.3767 14.2126V5.41689H80.3979V14.5268C80.3979 16.9406 81.7642 17.2382 82.8635 17.2382ZM91.9253 16.147C91.9253 16.147 90.7003 17.354 88.7058 17.354C86.0517 17.354 84.4026 15.3369 84.4026 12.9396C84.4026 10.3438 86.0831 8.52516 88.4702 8.52516C90.7788 8.52516 92.0195 10.2942 92.0195 12.5262C92.0195 12.7742 91.9724 13.3364 91.9724 13.3364H86.4443C86.5699 14.8078 87.6536 15.5684 88.8471 15.5684C90.1349 15.5684 91.1558 14.6425 91.1558 14.6425L91.9253 16.147ZM90.0093 11.898H86.5071C86.6956 10.8068 87.4023 10.1454 88.4231 10.1454C89.3026 10.1454 89.9779 10.7572 90.0093 11.898ZM99.1653 14.8244C99.1653 16.2297 98.0031 17.354 96.1028 17.354C94.1083 17.354 92.9932 16.114 92.9932 16.114L93.9041 14.6425C93.9041 14.6425 94.7836 15.5684 96.0871 15.5684C96.6525 15.5684 97.1394 15.3038 97.1394 14.8078C97.1394 14.2989 96.5004 14.0232 95.7401 13.6952C94.6233 13.2133 93.2445 12.6184 93.2445 11.0052C93.2445 9.43449 94.5794 8.52516 96.307 8.52516C98.1131 8.52516 98.9925 9.48409 98.9925 9.48409L98.2544 11.0382C98.2544 11.0382 97.5163 10.3108 96.2913 10.3108C95.773 10.3108 95.2705 10.5422 95.2705 11.0713C95.2705 11.5457 95.8891 11.8074 96.6332 12.1222C97.7563 12.5974 99.1653 13.1935 99.1653 14.8244ZM104.505 17.354C106.5 17.354 107.725 16.147 107.725 16.147L106.955 14.6425C106.955 14.6425 105.934 15.5684 104.646 15.5684C103.453 15.5684 102.369 14.8078 102.243 13.3364H107.772C107.772 13.3364 107.819 12.7742 107.819 12.5262C107.819 10.2942 106.578 8.52516 104.269 8.52516C101.882 8.52516 100.202 10.3438 100.202 12.9396C100.202 15.3369 101.851 17.354 104.505 17.354ZM102.306 11.898H105.809C105.777 10.7572 105.102 10.1454 104.222 10.1454C103.201 10.1454 102.495 10.8068 102.306 11.898ZM113.206 17.354C115.2 17.354 116.425 16.147 116.425 16.147L115.656 14.6425C115.656 14.6425 114.635 15.5684 113.347 15.5684C112.153 15.5684 111.07 14.8078 110.944 13.3364H116.472C116.472 13.3364 116.519 12.7742 116.519 12.5262C116.519 10.2942 115.279 8.52516 112.97 8.52516C110.583 8.52516 108.902 10.3438 108.902 12.9396C108.902 15.3369 110.551 17.354 113.206 17.354ZM111.007 11.898H114.509C114.478 10.7572 113.802 10.1454 112.923 10.1454C111.902 10.1454 111.195 10.8068 111.007 11.898ZM121.168 17.354C123.005 17.354 123.681 15.9156 123.681 15.9156H123.712C123.712 15.9156 123.681 16.147 123.681 16.4612V17.1556H125.565V5.41689H123.571V9.12036C123.571 9.38489 123.587 9.59982 123.587 9.59982H123.555C123.555 9.59982 123.005 8.52516 121.246 8.52516C119.126 8.52516 117.619 10.2612 117.619 12.9396C117.619 15.5518 119.001 17.354 121.168 17.354ZM119.629 12.9396C119.629 14.5433 120.446 15.5849 121.623 15.5849C122.66 15.5849 123.634 14.7913 123.634 12.923C123.634 11.6169 122.974 10.3273 121.639 10.3273C120.54 10.3273 119.629 11.2697 119.629 12.9396Z" fill="#4F5861"/>
<path fill-rule="evenodd" clip-rule="evenodd" d="M53.6523 39.2V27.4613H51.6263V39.2H53.6523ZM58.0497 39.2V35.3312C58.0497 34.9344 58.0811 34.5541 58.191 34.2069C58.4894 33.1984 59.2747 32.4875 60.3426 32.4875C61.3634 32.4875 61.6147 33.1819 61.6147 34.2069V39.2H63.5935V33.7771C63.5935 31.5451 62.5884 30.5696 60.8138 30.5696C59.1961 30.5696 58.3167 31.6112 57.9712 32.3221H57.9397C57.9397 32.3221 57.9712 32.0576 57.9712 31.7435V30.768H56.0551V39.2H58.0497ZM72.671 30.768L69.797 39.2H67.4413L64.5358 30.768H66.6403L68.305 35.9925C68.4107 36.3261 68.495 36.7869 68.5436 37.0529L68.5436 37.0529L68.5437 37.0531C68.5673 37.1824 68.5826 37.2656 68.5877 37.2656H68.6191C68.6243 37.2656 68.6395 37.1824 68.6632 37.0531L68.6632 37.0529L68.6632 37.0529C68.7119 36.7869 68.7962 36.3261 68.9018 35.9925L70.5665 30.768H72.671ZM77.4767 39.3984C79.4713 39.3984 80.6962 38.1915 80.6962 38.1915L79.9267 36.6869C79.9267 36.6869 78.9059 37.6128 77.6181 37.6128C76.4245 37.6128 75.3409 36.8523 75.2152 35.3808H80.7434C80.7434 35.3808 80.7905 34.8187 80.7905 34.5707C80.7905 32.3387 79.5498 30.5696 77.2412 30.5696C74.854 30.5696 73.1736 32.3883 73.1736 34.984C73.1736 37.3813 74.8226 39.3984 77.4767 39.3984ZM75.278 33.9424H78.7802C78.7488 32.8016 78.0735 32.1899 77.194 32.1899C76.1732 32.1899 75.4665 32.8512 75.278 33.9424ZM84.8738 39.3984C86.7741 39.3984 87.9362 38.2741 87.9362 36.8688C87.9362 35.2379 86.5272 34.6418 85.4041 34.1667C84.66 33.8519 84.0414 33.5901 84.0414 33.1157C84.0414 32.5867 84.544 32.3552 85.0622 32.3552C86.2872 32.3552 87.0254 33.0827 87.0254 33.0827L87.7635 31.5285C87.7635 31.5285 86.884 30.5696 85.0779 30.5696C83.3504 30.5696 82.0155 31.4789 82.0155 33.0496C82.0155 34.6629 83.3942 35.2577 84.5111 35.7396C85.2714 36.0677 85.9103 36.3433 85.9103 36.8523C85.9103 37.3483 85.4234 37.6128 84.8581 37.6128C83.5546 37.6128 82.6751 36.6869 82.6751 36.6869L81.7642 38.1584L81.7974 38.1931C81.996 38.394 83.0787 39.3984 84.8738 39.3984ZM93.8256 39.2331C93.8256 39.2331 93.59 39.2827 93.2131 39.2827C92.0981 39.2827 89.8837 38.9355 89.8837 36.1083V32.5701H88.8471V30.9003H89.9308V28.4699H91.8782V30.9003H93.7V32.5701H91.8782V35.8437C91.8782 37.2325 92.9147 37.4309 93.4644 37.4309C93.6843 37.4309 93.8256 37.3979 93.8256 37.3979V39.2331ZM97.4535 39.2V35.4965C97.4535 35.1163 97.4692 34.736 97.5477 34.4219C97.799 33.3472 98.4743 32.4875 99.5108 32.4875C100.453 32.4875 100.594 33.2645 100.594 34.1739V39.2H102.589V35.4965C102.589 35.0997 102.605 34.736 102.683 34.4053C102.919 33.3472 103.594 32.4875 104.615 32.4875C105.542 32.4875 105.714 33.2149 105.714 34.1739V39.2H107.709V33.7771C107.709 31.5616 106.751 30.5696 105.086 30.5696C103.83 30.5696 102.793 31.3963 102.353 32.3056H102.322C101.992 31.1648 101.207 30.5696 99.982 30.5696C98.7256 30.5696 97.7676 31.4955 97.3749 32.3221H97.3435C97.3435 32.3221 97.3749 32.0576 97.3749 31.7435V30.768H95.4589V39.2H97.4535ZM116.755 38.1915C116.755 38.1915 115.53 39.3984 113.535 39.3984C110.881 39.3984 109.232 37.3813 109.232 34.984C109.232 32.3883 110.913 30.5696 113.3 30.5696C115.608 30.5696 116.849 32.3387 116.849 34.5707C116.849 34.8187 116.802 35.3808 116.802 35.3808H111.274C111.399 36.8523 112.483 37.6128 113.677 37.6128C114.964 37.6128 115.985 36.6869 115.985 36.6869L116.755 38.1915ZM114.839 33.9424H111.337C111.525 32.8512 112.232 32.1899 113.253 32.1899C114.132 32.1899 114.807 32.8016 114.839 33.9424ZM120.493 35.3312V39.2H118.498V30.768H120.414V31.7435C120.414 32.0576 120.383 32.3221 120.383 32.3221H120.414C120.76 31.6112 121.639 30.5696 123.257 30.5696C125.031 30.5696 126.036 31.5451 126.036 33.7771V39.2H124.058V34.2069C124.058 33.1819 123.806 32.4875 122.786 32.4875C121.718 32.4875 120.932 33.1984 120.634 34.2069C120.524 34.5541 120.493 34.9344 120.493 35.3312ZM131.722 39.2827C132.099 39.2827 132.334 39.2331 132.334 39.2331V37.3979C132.334 37.3979 132.193 37.4309 131.973 37.4309C131.423 37.4309 130.387 37.2325 130.387 35.8437V32.5701H132.209V30.9003H130.387V28.4699H128.439V30.9003H127.356V32.5701H128.392V36.1083C128.392 38.9355 130.607 39.2827 131.722 39.2827ZM139.464 36.8688C139.464 38.2741 138.302 39.3984 136.402 39.3984C134.607 39.3984 133.524 38.394 133.325 38.1931L133.292 38.1584L134.203 36.6869C134.203 36.6869 135.083 37.6128 136.386 37.6128C136.951 37.6128 137.438 37.3483 137.438 36.8523C137.438 36.3433 136.799 36.0677 136.039 35.7396C134.922 35.2577 133.543 34.6629 133.543 33.0496C133.543 31.4789 134.878 30.5696 136.606 30.5696C138.412 30.5696 139.291 31.5285 139.291 31.5285L138.553 33.0827C138.553 33.0827 137.815 32.3552 136.59 32.3552C136.072 32.3552 135.569 32.5867 135.569 33.1157C135.569 33.5901 136.188 33.8519 136.932 34.1667C138.055 34.6418 139.464 35.2379 139.464 36.8688Z" fill="#4F5861"/>
</svg>
