<svg width="20" height="24" viewBox="0 0 20 24" fill="none" xmlns="http://www.w3.org/2000/svg">
<path fill-rule="evenodd" clip-rule="evenodd" d="M19.423 16.5156C19.4817 16.5777 19.538 16.6374 19.5915 16.6952C19.8586 16.9839 19.9771 17.33 19.9749 17.6685C19.9705 18.4037 19.3969 19.1031 18.5455 19.1031H1.45437C0.602968 19.1031 0.029847 18.4037 0.0249329 17.6685C0.022715 17.33 0.141175 16.9843 0.408362 16.6952C0.461802 16.6374 0.518135 16.5777 0.576794 16.5156C1.46246 15.5782 2.87849 14.0795 2.87849 9.77809C2.87849 6.29465 5.30453 3.50611 8.57578 2.82199V1.88771C8.57578 1.09554 9.21348 0.453094 9.99991 0.453094C10.7863 0.453094 11.424 1.09554 11.424 1.88771V2.82199C14.6953 3.50611 17.1213 6.29465 17.1213 9.77809C17.1213 14.0795 18.5374 15.5782 19.423 16.5156ZM12.8486 20.5377C12.8486 22.1225 11.5728 23.4069 9.99991 23.4069C8.42706 23.4069 7.15126 22.1225 7.15126 20.5377H12.8486Z" fill="white"/>
<path fill-rule="evenodd" clip-rule="evenodd" d="M19.423 16.5156C19.4817 16.5777 19.538 16.6374 19.5915 16.6952C19.8586 16.9839 19.9771 17.33 19.9749 17.6685C19.9705 18.4037 19.3969 19.1031 18.5455 19.1031H1.45437C0.602968 19.1031 0.029847 18.4037 0.0249329 17.6685C0.022715 17.33 0.141175 16.9843 0.408362 16.6952C0.461802 16.6374 0.518135 16.5777 0.576794 16.5156C1.46246 15.5782 2.87849 14.0795 2.87849 9.77809C2.87849 6.29465 5.30453 3.50611 8.57578 2.82199V1.88771C8.57578 1.09554 9.21348 0.453094 9.99991 0.453094C10.7863 0.453094 11.424 1.09554 11.424 1.88771V2.82199C14.6953 3.50611 17.1213 6.29465 17.1213 9.77809C17.1213 14.0795 18.5374 15.5782 19.423 16.5156ZM12.8486 20.5377C12.8486 22.1225 11.5728 23.4069 9.99991 23.4069C8.42706 23.4069 7.15126 22.1225 7.15126 20.5377H12.8486Z" fill="#272727"/>
</svg>
